<?xml version="1.0" encoding="UTF-8" standalone="no"?>
<!-- Created with Inkscape (http://www.inkscape.org/) -->

<svg
   width="55.408215mm"
   height="63.618938mm"
   viewBox="0 0 55.408215 63.618938"
   version="1.1"
   id="svg1"
   sodipodi:docname="hex-mtn-1.svg"
   inkscape:version="1.4.3 (0d15f75042, 2025-12-25)"
   xmlns:inkscape="http://www.inkscape.org/namespaces/inkscape"
   xmlns:sodipodi="http://sodipodi.sourceforge.net/DTD/sodipodi-0.dtd"
   xmlns="http://www.w3.org/2000/svg"
   xmlns:svg="http://www.w3.org/2000/svg">
  <sodipodi:namedview
     id="namedview1"
     pagecolor="#ffffff"
     bordercolor="#000000"
     borderopacity="0.25"
     inkscape:showpageshadow="2"
     inkscape:pageopacity="0.0"
     inkscape:pagecheckerboard="0"
     inkscape:deskcolor="#d1d1d1"
     inkscape:document-units="mm"
     showguides="true"
     inkscape:zoom="1.1918624"
     inkscape:cx="-147.24854"
     inkscape:cy="-185.42409"
     inkscape:window-width="1920"
     inkscape:window-height="1032"
     inkscape:window-x="0"
     inkscape:window-y="25"
     inkscape:window-maximized="1"
     inkscape:current-layer="layer1">
    <sodipodi:guide
       position="-72.442654,365.19942"
       orientation="0,-1"
       id="guide34"
       inkscape:locked="false" />
    <sodipodi:guide
       position="-63.02708,265.16975"
       orientation="0,-1"
       id="guide35"
       inkscape:locked="false" />
    <sodipodi:guide
       position="27.530346,324.32612"
       orientation="1,0"
       id="guide37"
       inkscape:locked="false" />
  </sodipodi:namedview>
  <defs
     id="defs1" />
  <g
     inkscape:label="Layer 1"
     inkscape:groupmode="layer"
     id="layer1"
     transform="translate(-72.442654,-68.113037)">
    <path
       style="fill:#000000;stroke:#000000;stroke-width:0.762"
       id="path40"
       d="m 94.327854,81.093426 c -1.745774,4.236254 -5.470461,7.146819 -8.634559,10.288958 -3.940237,3.410897 -8.32687,6.280147 -12.123249,9.861356 3.045202,0.18396 3.932534,-3.6658 6.457737,-4.764147 5.190818,-4.448557 10.845419,-8.505897 14.998804,-14.013929 0.359212,-0.539518 -0.03162,-1.366488 -0.698733,-1.372238 z" />
    <path
       style="fill:#000000;stroke:#000000;stroke-width:0.762"
       id="path41"
       d="m 92.845119,81.201634 c 5.025324,5.523393 8.691101,12.263962 14.563011,17.007319 0.76117,0.933141 3.25673,3.913907 3.40072,2.875367 -1.98964,-2.741769 -5.05183,-4.454354 -7.11653,-7.148618 -3.35135,-3.69692 -5.895557,-8.047088 -9.176046,-11.789481 -0.482918,-0.425497 -1.04549,-0.775901 -1.671127,-0.944617 z" />
    <path
       style="fill:#000000;stroke:#000000;stroke-width:0.762"
       id="path42"
       d="m 97.662104,87.678474 c 2.968716,-1.586956 5.966886,-3.121729 8.876106,-4.817133 -2.72047,-0.884942 -0.62196,3.362301 0.13235,4.428244 2.16805,4.946999 4.75321,9.703514 7.54659,14.322575 0.6152,0.77738 1.72428,0.55254 0.34204,0.12267 -0.12939,1.83201 1.88936,0.009 0.24287,-0.72952 -2.9072,-4.337496 -5.15653,-9.088775 -7.15504,-13.881277 -0.69551,-1.70268 -0.96978,-6.293339 -3.76047,-3.839107 -1.88303,1.683015 -5.611603,2.211368 -6.69877,4.104418 l 0.199809,0.131217 0.274551,0.157893 z" />
    <path
       style="fill:#000000;stroke:#000000;stroke-width:0.762"
       id="path43"
       d="m 109.41972,90.62028 c 3.3816,-1.162683 6.75917,-2.556477 9.56941,-4.816519 -0.77692,3.087409 1.81727,5.59938 3.32792,7.993253 1.00989,1.32728 3.14815,4.536241 3.35248,4.747919 -2.0644,-3.742651 -5.74311,-6.697807 -6.44819,-11.105598 0.41615,-3.30905 -2.83094,-0.06711 -3.94862,0.569057 -1.97894,1.063199 -4.14104,1.718405 -6.29724,2.314262 z" />
    <path
       style="fill:#000000;stroke:#000000;stroke-width:0.762"
       id="path44"
       d="m 86.563147,90.038994 c -1.477168,-1.837866 -1.279365,-6.532626 -4.613605,-5.756715 -2.583477,0.962458 -4.765393,2.714281 -7.211208,3.955572 -1.998454,0.774587 -0.614997,2.771024 0.85541,1.374813 2.102216,-2.631205 5.472389,-3.548705 8.374278,-5.006003 -1.78993,-0.420598 0.900325,2.58027 0.721688,3.57713 0.237531,0.894204 0.989127,1.608694 1.873443,1.855199 z" />
    <path
       style="fill:#000000;stroke:#000000;stroke-width:0.762"
       id="path45"
       d="m 114.79617,90.252893 c -1.27806,0.976603 -4.83202,1.596034 -5.05018,1.960519 1.7077,-0.570063 3.63868,-0.732818 5.05018,-1.960519 z" />
    <path
       style="fill:#000000;stroke:#000000;stroke-width:0.762"
       id="path46"
       d="m 114.84498,92.726932 c -0.69147,0.833215 -4.32277,1.153107 -3.44051,1.407714 1.22706,-0.194065 2.52458,-0.509025 3.44051,-1.407714 z" />
    <path
       style="fill:#000000;stroke:#000000;stroke-width:0.762"
       id="path47"
       d="m 114.33754,95.334378 c -1.26833,-0.432192 -3.60297,1.472136 -1.0937,0.457477 0.25172,-0.08841 1.61775,0.111272 1.0937,-0.457477 z" />
    <path
       style="fill:#000000;stroke:#000000;stroke-width:0.762"
       id="path48"
       d="m 102.58757,86.732169 c -1.09259,0.421437 -4.975769,2.065431 -1.78247,1.135385 0.68393,-0.177566 1.47021,-0.429909 1.78247,-1.135385 z" />
    <path
       style="fill:#000000;stroke:#000000;stroke-width:0.762"
       id="path49"
       d="m 102.29498,89.128493 c -1.26509,-0.284791 -2.28777,1.750953 -0.57144,0.543646 0.24153,-0.07424 1.39635,-0.22435 0.57144,-0.543646 z" />
    <path
       style="fill:#000000;stroke:#000000;stroke-width:0.762"
       id="path50"
       d="m 103.16219,91.540197 c -2.23953,0.115195 -0.0894,1.461621 0.32623,0.07531 z" />
    <path
       style="fill:#000000;stroke:#000000;stroke-width:0.762"
       id="path51"
       d="m 104.14695,93.839324 c -1.55306,0.149394 0.2296,1.219702 0,0 z" />
    <path
       style="fill:#000000;stroke:#000000;stroke-width:0.762"
       id="path52"
       d="m 89.158908,86.665196 c 0.17521,0.875477 1.432976,5.228667 1.25835,2.482604 -0.02514,-0.939765 -0.156023,-2.199531 -1.25835,-2.482604 z" />
    <path
       style="fill:#000000;stroke:#000000;stroke-width:0.762"
       id="path53"
       d="m 86.339276,90.738995 c -0.711017,0.990267 -0.863864,4.80569 0.111023,1.869027 0.276672,-0.571039 0.524721,-1.428472 -0.111023,-1.869027 z" />
    <path
       style="fill:#000000;stroke:#000000;stroke-width:0.762"
       id="path54"
       d="m 80.525535,93.650736 c 0.685358,0.863136 -0.765186,4.348658 0.385273,3.508356 0.350085,-1.129582 0.634606,-2.624766 -0.385273,-3.508356 z" />
    <path
       style="fill:#000000;stroke:#000000;stroke-width:0.762"
       id="path55"
       d="m 79.151154,86.484978 c 0.899293,1.145691 0.03765,3.489 1.396507,4.079178 -0.133056,-1.403914 0.197472,-3.372374 -1.396507,-4.079178 z" />
    <path
       style="fill:#000000;stroke:#000000;stroke-width:0.762"
       id="path56"
       d="m 75.322415,88.324463 c 0.01085,1.262597 -0.760994,5.073918 0.52145,4.66232 0.04634,-1.551856 0.501145,-3.309468 -0.52145,-4.66232 z" />
    <path
       style="fill:#000000;stroke:#000000;stroke-width:0.762"
       id="path80"
       d="m 82.364617,89.847853 c -0.485333,1.493313 2.450011,4.07526 1.654047,1.11201 -0.29288,-0.663624 -1.087226,-0.784371 -1.654047,-1.11201 z" />
    <path
       style="fill:#000000;stroke:#000000;stroke-width:0.762"
       id="path81"
       d="m 77.861361,92.671786 c -1.315774,-1.767692 -1.710688,2.492398 -2.241253,3.389674 0.323596,2.997972 1.75393,-0.78753 1.631247,-1.988431 0.335384,-0.721722 -0.214824,-3.44508 0.610006,-1.401243 z" />
    <path
       style="fill:#000000;stroke:#000000;stroke-width:0.762"
       id="path82"
       d="m 92.210699,94.233822 c -4.420185,2.576844 -8.607606,5.536644 -12.384946,8.994128 -1.059749,1.34024 -4.889498,2.844 -3.97739,4.46163 1.988047,-1.24148 3.193373,-3.36779 4.989282,-4.85822 3.468863,-3.353664 7.354073,-6.371577 11.801716,-8.309346 z" />
    <path
       style="fill:#000000;stroke:#000000;stroke-width:0.762"
       id="path83"
       d="m 91.637819,94.266999 c -0.269432,3.489549 0.794935,6.889341 0.962566,10.355091 -0.189145,-2.4696 -4.269936,-3.96988 -5.949554,-2.32375 -1.329718,1.8822 -3.841518,0.009 -4.57418,2.66092 -1.08977,2.9283 -3.969314,0.0868 -5.564154,0.98877 2.297302,1.23848 6.489605,1.55565 7.228125,-1.68537 0.847343,-1.46602 3.480625,0.38025 3.927103,-1.85825 1.847546,-1.60319 4.487207,1.74017 5.405442,1.16383 -0.256572,-2.63241 -1.176862,-5.179407 -0.856431,-7.862028 -0.05146,-0.519752 -0.216612,-1.048885 -0.578917,-1.439213 z" />
    <path
       style="fill:#000000;stroke:#000000;stroke-width:0.762"
       id="path84"
       d="m 100.48816,97.448095 c 2.33011,3.203445 4.49803,6.520495 6.79273,9.748895 -0.0867,1.48006 3.61018,3.70681 1.2191,1.4271 -2.2975,-1.81395 -5.32602,-2.26131 -8.17087,-2.32777 2.2651,2.03591 3.18212,-2.50738 0.41223,-2.43068 -1.677572,0.0684 -3.737538,-1.38176 -1.421981,-2.62934 2.296921,-1.292184 1.356521,-4.280351 -0.602457,-4.90956 0.331043,-1.497367 -3.326664,-4.543294 -1.841293,-1.788973 1.37323,1.926144 5.151211,4.265128 1.900897,6.307503 -1.887195,1.7677 0.137524,3.06229 1.922544,3.09762 1.7137,0.50279 1.62205,2.36572 -0.30598,2.23817 1.74186,1.57372 4.99724,-0.14898 6.77215,1.96324 0.78477,0.64179 3.27536,2.58415 1.81505,0.45924 -2.0053,-3.07799 -4.33108,-5.9348 -6.17374,-9.121344 -0.60626,-0.852466 -1.28189,-1.727289 -2.31837,-2.034108 z" />
    <path
       style="fill:#000000;stroke:#000000;stroke-width:0.762"
       id="path85"
       d="m 117.77139,96.573569 c 2.14194,-0.601676 1.8888,3.38429 3.83454,4.048291 1.67755,1.2608 3.62441,4.28029 5.31602,4.29315 -1.83539,-1.82974 -5.31115,-0.22462 -6.46829,-2.97923 -0.42803,-1.28602 -2.78765,-3.508387 -3.1097,-2.074383 1.85206,0.812333 3.43445,-4.472447 1.23264,-2.068172 -1.05519,0.622495 -2.30331,2.709015 -0.0284,2.254535 1.41339,2.64625 3.97225,5.09697 7.18253,4.5696 1.22953,0.50742 1.52592,0.6213 0.35062,-0.28812 -2.74966,-2.43786 -5.79041,-4.952428 -6.94753,-8.58145 -0.40753,-0.403275 -1.95294,0.201606 -1.36246,0.825768 z" />
    <path
       style="fill:#000000;stroke:#000000;stroke-width:0.762"
       id="path86"
       d="m 89.477435,105.68261 c -2.090014,0.79793 -4.756197,0.95535 -6.130981,2.94143 -1.036588,2.30908 1.856871,3.34808 3.661632,3.23081 2.164279,-0.0414 4.360981,-0.1932 6.450909,0.49861 4.497365,0.96708 8.755255,2.76541 13.191955,3.9504 2.95078,1.87618 -0.25746,5.9719 -3.09074,4.85571 -0.91103,-0.11172 -3.09666,0.5501 -0.89637,0.65896 2.3701,0.46466 6.84008,-0.55117 5.90551,-3.73864 -1.38634,-2.84265 -4.94787,-2.77372 -7.52127,-3.82835 -5.084159,-1.6924 -10.369237,-3.62711 -15.818987,-2.95392 -3.503301,-1.25548 0.660084,-5.10152 3.00716,-4.604 0.307087,-0.14637 2.032226,-0.44442 1.241182,-1.01101 z" />
    <path
       style="fill:#000000;stroke:#000000;stroke-width:0.762"
       id="path87"
       d="m 85.986228,105.89678 c -2.597605,0.71507 -6.061406,0.31945 -7.673435,2.93016 -1.332927,2.45609 1.755453,4.29307 3.875444,4.58399 4.222333,0.99577 8.774094,0.78116 12.723536,2.79498 -1.371982,1.71302 -4.255352,1.73255 -6.534658,1.62203 -1.361226,0.28793 -4.086894,-0.35115 -4.551356,0.99168 2.259103,0.7391 4.460612,-0.81678 6.757292,-0.38896 1.715581,0.38575 6.424138,-0.35496 4.285854,-2.60397 -2.434435,-1.33678 -5.321096,-1.75732 -8.02735,-2.268 -2.56237,-0.27642 -5.229043,-0.44446 -7.563065,-1.64559 0.320484,-0.31988 -1.370229,-2.53855 0.378435,-3.06487 1.254637,-2.17556 5.487851,-1.72909 6.329303,-2.95145 z" />
  </g>
  <g
     inkscape:groupmode="layer"
     id="layer2"
     inkscape:label="outline"
     transform="translate(-72.442654,-68.113037)">
    <path
       sodipodi:type="star"
       style="fill:none;stroke:#d35f5f;stroke-width:0.762"
       id="path39"
       inkscape:flatsided="false"
       sodipodi:sides="3"
       sodipodi:cx="99.973"
       sodipodi:cy="99.943291"
       sodipodi:r1="31.349033"
       sodipodi:r2="31.390398"
       sodipodi:arg1="1.5707963"
       sodipodi:arg2="2.6131109"
       inkscape:rounded="0"
       inkscape:randomized="0"
       d="M 99.973,131.29232 72.865081,115.77105 72.82394,84.268775 99.819722,68.553267 127.12206,84.268773 127.2342,115.50556 Z"
       inkscape:transform-center-y="0.48338716" />
  </g>
</svg>
